<?xml version="1.0" encoding="utf-8"?>
<!-- Generator: Adobe Illustrator 25.2.1, SVG Export Plug-In . SVG Version: 6.00 Build 0)  -->
<svg version="1.1" xmlns="http://www.w3.org/2000/svg" xmlns:xlink="http://www.w3.org/1999/xlink" x="0px" y="0px"
	 viewBox="0 0 1571 794" style="enable-background:new 0 0 1571 794;" xml:space="preserve">
<style type="text/css">
	.st0{fill:#201F21;}
	.st1{fill:#7E57C2;}
	.st2{fill:none;stroke:#201F21;stroke-width:1.75;stroke-miterlimit:10;}
	.st3{fill:none;stroke:#201F21;stroke-miterlimit:10;}
	.st4{fill:#FFFFFF;}
	.st5{fill:#C5BADB;}
	.st6{fill:none;stroke:#000000;stroke-miterlimit:10;}
	.st7{fill:#54875E;}
	.st8{fill:#CCB98D;}
	.st9{fill:#2A4335;}
	.st10{fill:#ECE8E6;}
	.st11{fill:#F4DE82;}
	.st12{fill:#355B44;}
	.st13{fill:#D5D8D4;}
	.st14{fill:#CECECE;}
	.st15{fill:#FFCC99;}
	.st16{fill:none;stroke:#201F21;stroke-width:0.7311;stroke-miterlimit:10;}
	.st17{fill:none;stroke:#201F21;stroke-width:0.7;stroke-miterlimit:10;}
	.st18{fill:none;stroke:#201F21;stroke-width:0.5;stroke-miterlimit:10;}
	.st19{fill:none;stroke:#000000;stroke-width:0.5;stroke-miterlimit:10;}
</style>
<g id="Layer_1">
	<g>
		<path d="M299.32,635.65c-88.7-46.04-149.47-138.7-149.47-245.36c0-152.36,123.96-276.31,276.31-276.31
			c83.96,0,159.24,37.69,209.96,96.98h20.61C603.2,142.29,519.78,98,426.17,98C265,98,133.87,229.12,133.87,390.29
			c0,115.75,67.64,215.99,165.45,263.31V635.65z"/>
		<g>
			<g>
				<path d="M454.86,252.3v9.42h-20.68v114.62c0,20.52-3.59,35.98-10.79,46.4c-7.2,10.42-17.99,15.62-32.39,15.62
					c-14.24,0-24.81-4.44-31.7-13.32s-10.65-22.82-11.25-41.8l10.33-0.92c1.07,17.76,3.94,29.97,8.61,36.63s12.75,9.99,24.24,9.99
					c11.48,0,19.79-4.09,24.91-12.29c5.13-8.19,7.7-21.47,7.7-39.85V261.71h-34.46l-0.45-9.42H454.86z"/>
				<path d="M581.88,408.95c-2.6,9.95-6.86,17.33-12.75,22.16s-14.2,7.24-24.91,7.24c-12.87,0-22.9-4.06-30.1-12.18
					c-7.2-8.11-10.79-19.98-10.79-35.6V344.4c0-16.08,3.63-28.17,10.91-36.28c7.28-8.11,16.88-12.18,28.83-12.18
					c11.94,0,21.51,4.14,28.71,12.4c7.2,8.28,10.79,20.83,10.79,37.67v22.27h-68.9v22.52c0,13.32,2.56,23.01,7.7,29.05
					c5.13,6.05,12.74,9.07,22.85,9.07c8.27,0,14.36-1.64,18.25-4.93c3.91-3.29,7.09-9.31,9.53-18.03L581.88,408.95z M513.66,344.4
					v14.47h58.57v-12.4c0-14.24-2.45-24.65-7.35-31.24c-4.9-6.58-12.17-9.87-21.82-9.87s-16.96,3.17-21.94,9.52
					C516.15,321.24,513.66,331.08,513.66,344.4z"/>
				<path d="M682.25,426.63v9.42h-51.22v-9.42h20.68V307.65h-20.68v-9.42h31.01v18.38h1.84c3.21-6.58,7.92-11.68,14.12-15.27
					c6.2-3.6,12.59-5.4,19.18-5.4c10.1,0,18.26,3.6,24.46,10.8c6.2,7.2,9.3,16.92,9.3,29.17v90.73h20.67v9.42h-31v-98.08
					c0-10.57-2.18-18.6-6.55-24.11c-4.36-5.52-10.45-8.28-18.26-8.28c-6.43,0-12.56,1.61-18.37,4.82
					c-5.82,3.22-10.95,8.43-15.39,15.62v100.6H682.25z"/>
				<path d="M847.84,426.63v9.42h-51.22v-9.42h20.68V307.65h-20.68v-9.42h31.01v18.38h1.84c3.21-6.58,7.92-11.68,14.12-15.27
					c6.2-3.6,12.59-5.4,19.18-5.4c10.1,0,18.26,3.6,24.46,10.8c6.2,7.2,9.3,16.92,9.3,29.17v90.73h20.67v9.42h-31v-98.08
					c0-10.57-2.18-18.6-6.55-24.11c-4.36-5.52-10.45-8.28-18.26-8.28c-6.43,0-12.56,1.61-18.37,4.82
					c-5.82,3.22-10.95,8.43-15.39,15.62v100.6H847.84z"/>
				<path d="M965.67,436.05v-9.42h34.45V307.65h-34.45v-9.42h44.79v128.4h34.45v9.42H965.67z M1005.18,267.92
					c-2.91,0-5.28-0.58-7.12-1.72c-1.84-1.15-2.76-3.25-2.76-6.32v-1.61c0-3.22,0.92-5.43,2.76-6.66c1.84-1.22,4.21-1.84,7.12-1.84
					s5.29,0.62,7.12,1.84c1.84,1.23,2.76,3.44,2.76,6.66v1.61c0,3.07-0.92,5.17-2.76,6.32
					C1010.46,267.34,1008.08,267.92,1005.18,267.92z"/>
				<path d="M1158.84,426.63v9.42h-65.46v-9.42h20.68V307.65h-20.68v-9.42h20.68V285.6c0-11.02,2.56-19.52,7.69-25.49
					c5.14-5.97,11.6-8.95,19.41-8.95c3.22,0,6.39,0.45,9.53,1.37s5.93,2.07,8.38,3.44l-2.07,8.96c-2.29-1.38-4.79-2.44-7.46-3.22
					c-2.68-0.76-5.32-1.14-7.92-1.14c-5.21,0-9.38,1.95-12.52,5.85c-3.14,3.91-4.71,10.23-4.71,18.96v12.86h34.45v9.42h-34.45
					v118.98H1158.84z"/>
				<path d="M1289.3,408.95c-2.6,9.95-6.86,17.33-12.75,22.16c-5.89,4.82-14.2,7.24-24.91,7.24c-12.87,0-22.9-4.06-30.1-12.18
					c-7.2-8.11-10.79-19.98-10.79-35.6V344.4c0-16.08,3.63-28.17,10.91-36.28c7.28-8.11,16.88-12.18,28.83-12.18
					c11.94,0,21.51,4.14,28.71,12.4c7.2,8.28,10.79,20.83,10.79,37.67v22.27h-68.9v22.52c0,13.32,2.56,23.01,7.7,29.05
					c5.13,6.05,12.74,9.07,22.85,9.07c8.27,0,14.36-1.64,18.25-4.93c3.91-3.29,7.09-9.31,9.53-18.03L1289.3,408.95z M1221.09,344.4
					v14.47h58.57v-12.4c0-14.24-2.45-24.65-7.35-31.24c-4.9-6.58-12.17-9.87-21.82-9.87c-9.65,0-16.96,3.17-21.94,9.52
					C1223.57,321.24,1221.09,331.08,1221.09,344.4z"/>
				<path d="M1338.45,436.05v-9.42h20.68V307.65h-20.68v-9.42h31.01v18.38h1.84c3.36-7.51,7.31-12.82,11.82-15.97
					c4.52-3.13,9.31-4.71,14.36-4.71c8.28,0,14.78,2.99,19.53,8.96c4.74,5.97,7.12,14.47,7.12,25.49v19.53h-10.33v-19.3
					c0-7.66-1.42-13.79-4.24-18.38c-2.84-4.59-7.24-6.88-13.22-6.88c-5.05,0-9.84,1.72-14.35,5.16c-4.52,3.44-8.69,9-12.52,16.66
					v99.45h21.36v9.42H1338.45z"/>
				<path d="M405.01,696c-16.39,0-28.83-5.02-37.33-15.05c-8.5-10.02-12.74-24.61-12.74-43.76v-69.82
					c0-19.45,4.24-34.26,12.74-44.44s20.94-15.27,37.33-15.27c15.93,0,28.06,4.67,36.41,14.01c8.34,9.35,12.82,23.35,13.44,42.03
					l-10.34,0.92c-1.22-17.31-4.82-29.55-10.79-36.76c-5.97-7.19-15.54-10.79-28.71-10.79c-14.24,0-24.42,4.09-30.55,12.29
					c-6.13,8.19-9.18,21.7-9.18,40.54v64.77c0,18.53,3.06,31.82,9.18,39.85c6.13,8.04,16.31,12.06,30.55,12.06
					s24.34-3.56,30.32-10.67c5.97-7.12,9.03-19.1,9.18-35.94l10.34,0.92c0,18.37-4.18,32.15-12.52,41.34
					C433.99,691.4,421.56,696,405.01,696z"/>
				<path d="M546.01,696c-10.87,0-19.48-3.52-25.83-10.57c-6.36-7.04-9.53-16.61-9.53-28.71c0-11.02,2.91-19.72,8.73-26.07
					c5.81-6.35,14.01-9.53,24.58-9.53h35.6V590.8c0-8.73-2.45-15.53-7.35-20.44c-4.9-4.9-11.57-7.35-19.98-7.35
					c-8.73,0-15.2,1.91-19.41,5.73c-4.21,3.83-7.46,10.8-9.76,20.9l-9.19-2.76c2.6-11.94,6.86-20.47,12.75-25.61
					c5.89-5.13,14.36-7.7,25.38-7.7c11.49,0,20.67,3.34,27.56,10c6.89,6.66,10.33,15.73,10.33,27.21v68.45
					c0,11.18,1.5,18.53,4.49,22.05c2.98,3.52,8.38,4.36,16.19,2.52v9.88c-7.66,1.52-13.98,0.65-18.95-2.64
					c-4.98-3.29-7.78-9.15-8.39-17.58h-1.61c-3.07,6.74-7.89,12.17-14.47,16.31C560.56,693.93,553.52,696,546.01,696z
					 M547.16,686.81c6.58,0,12.52-1.79,17.81-5.39c5.28-3.59,10.14-8.77,14.58-15.51v-35.83h-34.91c-7.51,0-13.44,1.84-17.8,5.51
					c-4.37,3.67-6.55,10.26-6.55,19.75c0,10.11,2.18,17.88,6.55,23.32C531.2,684.1,537.98,686.81,547.16,686.81z"/>
				<path d="M728.36,684.28v9.42H662.9v-9.42h20.68V565.3H662.9v-9.42h20.68v-12.64c0-11.02,2.56-19.52,7.69-25.49
					c5.14-5.97,11.6-8.95,19.41-8.95c3.22,0,6.39,0.45,9.53,1.37s5.93,2.07,8.38,3.44l-2.07,8.96c-2.29-1.38-4.79-2.44-7.46-3.22
					c-2.68-0.76-5.32-1.14-7.92-1.14c-5.21,0-9.38,1.95-12.52,5.85c-3.14,3.91-4.71,10.23-4.71,18.96v12.86h34.45v9.42h-34.45
					v118.98H728.36z"/>
				<path d="M787.6,693.7v-9.42h34.45V565.3H787.6v-9.42h44.79v128.4h34.45v9.42H787.6z M827.1,525.57c-2.91,0-5.28-0.58-7.12-1.72
					c-1.84-1.15-2.76-3.25-2.76-6.32v-1.61c0-3.22,0.92-5.43,2.76-6.66c1.84-1.22,4.21-1.84,7.12-1.84c2.91,0,5.29,0.62,7.12,1.84
					c1.84,1.23,2.76,3.44,2.76,6.66v1.61c0,3.07-0.92,5.17-2.76,6.32C832.39,524.99,830.01,525.57,827.1,525.57z"/>
				<path d="M1004.63,666.6c-2.6,9.95-6.86,17.33-12.75,22.16c-5.89,4.82-14.2,7.24-24.91,7.24c-12.87,0-22.9-4.06-30.1-12.18
					c-7.2-8.11-10.79-19.98-10.79-35.6v-46.17c0-16.08,3.63-28.17,10.91-36.28s16.88-12.18,28.83-12.18
					c11.94,0,21.51,4.14,28.71,12.4c7.2,8.28,10.79,20.83,10.79,37.67v22.27h-68.9v22.52c0,13.32,2.56,23.01,7.7,29.05
					c5.13,6.05,12.74,9.07,22.85,9.07c8.27,0,14.36-1.64,18.25-4.93c3.91-3.29,7.09-9.31,9.53-18.03L1004.63,666.6z M936.42,602.05
					v14.47h58.57v-12.4c0-14.24-2.45-24.65-7.35-31.24c-4.9-6.58-12.17-9.87-21.82-9.87s-16.96,3.17-21.94,9.52
					C938.91,578.89,936.42,588.73,936.42,602.05z"/>
				<path d="M1061.11,693.7v-9.42h20.68V565.3h-20.68v-9.42h31.01v18.38h1.84c3.36-7.51,7.31-12.82,11.82-15.97
					c4.52-3.13,9.31-4.71,14.36-4.71c8.28,0,14.78,2.99,19.53,8.96c4.74,5.97,7.12,14.47,7.12,25.49v19.53h-10.33v-19.3
					c0-7.66-1.42-13.79-4.24-18.38c-2.84-4.59-7.24-6.88-13.22-6.88c-5.05,0-9.84,1.72-14.35,5.16c-4.52,3.44-8.69,9-12.52,16.66
					v99.45h21.36v9.42H1061.11z"/>
				<path d="M1242.77,696c-12.72,0-22.51-4.14-29.4-12.4c-6.89-8.28-10.33-19.98-10.33-35.14v-46.4c0-15.46,3.48-27.4,10.45-35.83
					c6.96-8.42,16.73-12.64,29.28-12.64c12.56,0,22.27,4.22,29.17,12.64c6.89,8.43,10.33,20.37,10.33,35.83v46.4
					c0,15.16-3.44,26.87-10.33,35.14C1265.05,691.86,1255.33,696,1242.77,696z M1242.77,686.57c9.8,0,17.11-3.13,21.94-9.42
					c4.82-6.28,7.23-15.85,7.23-28.7v-46.4c0-13.32-2.41-23.16-7.23-29.52c-4.82-6.35-12.14-9.52-21.94-9.52
					c-9.96,0-17.34,3.17-22.17,9.52c-4.82,6.36-7.23,16.19-7.23,29.52v46.4c0,12.86,2.41,22.43,7.23,28.7
					C1225.43,683.44,1232.81,686.57,1242.77,686.57z"/>
			</g>
		</g>
	</g>
</g>
<g id="Layer_4">
</g>
<g id="Layer_3">
</g>
<g id="Layer_2">
</g>
</svg>
